<mxfile host="app.diagrams.net" agent="Mozilla/5.0 (Windows NT 10.0; Win64; x64) AppleWebKit/537.36 (KHTML, like Gecko) Chrome/131.0.0.0 Safari/537.36 Edg/131.0.0.0" version="24.9.3">
  <diagram name="Page-1" id="ES0AzclK-f92I3SdQgUJ">
    <mxGraphModel dx="1775" dy="1651" grid="0" gridSize="10" guides="1" tooltips="1" connect="1" arrows="1" fold="1" page="1" pageScale="1" pageWidth="850" pageHeight="1100" math="0" shadow="0">
      <root>
        <mxCell id="0" />
        <mxCell id="1" parent="0" />
        <mxCell id="ZrCiHc0d2njdrgSF2uFj-16" value="" style="group" vertex="1" connectable="0" parent="1">
          <mxGeometry x="418" y="60" width="200" height="150" as="geometry" />
        </mxCell>
        <mxCell id="6g46kTWGhpmDOOnm2r3h-1" value="DEPARTMENT" style="rounded=0;whiteSpace=wrap;html=1;" parent="ZrCiHc0d2njdrgSF2uFj-16" vertex="1">
          <mxGeometry x="30" y="50" width="100" height="40" as="geometry" />
        </mxCell>
        <mxCell id="6g46kTWGhpmDOOnm2r3h-4" value="&lt;u&gt;DEP_CODE&lt;/u&gt;" style="ellipse;whiteSpace=wrap;html=1;align=center;" parent="ZrCiHc0d2njdrgSF2uFj-16" vertex="1">
          <mxGeometry x="40" width="80" height="30" as="geometry" />
        </mxCell>
        <mxCell id="6g46kTWGhpmDOOnm2r3h-5" value="NO. OFFICE" style="ellipse;whiteSpace=wrap;html=1;align=center;" parent="ZrCiHc0d2njdrgSF2uFj-16" vertex="1">
          <mxGeometry x="-21" y="111" width="80" height="30" as="geometry" />
        </mxCell>
        <mxCell id="6g46kTWGhpmDOOnm2r3h-10" value="" style="endArrow=none;html=1;rounded=0;exitX=0.5;exitY=1;exitDx=0;exitDy=0;entryX=0.5;entryY=0;entryDx=0;entryDy=0;" parent="ZrCiHc0d2njdrgSF2uFj-16" source="6g46kTWGhpmDOOnm2r3h-4" target="6g46kTWGhpmDOOnm2r3h-1" edge="1">
          <mxGeometry relative="1" as="geometry">
            <mxPoint x="10" y="80" as="sourcePoint" />
            <mxPoint x="170" y="80" as="targetPoint" />
          </mxGeometry>
        </mxCell>
        <mxCell id="6g46kTWGhpmDOOnm2r3h-11" value="" style="endArrow=none;html=1;rounded=0;entryX=0.5;entryY=0;entryDx=0;entryDy=0;exitX=0.5;exitY=1;exitDx=0;exitDy=0;" parent="ZrCiHc0d2njdrgSF2uFj-16" source="6g46kTWGhpmDOOnm2r3h-1" target="6g46kTWGhpmDOOnm2r3h-5" edge="1">
          <mxGeometry relative="1" as="geometry">
            <mxPoint x="10" y="80" as="sourcePoint" />
            <mxPoint x="170" y="80" as="targetPoint" />
          </mxGeometry>
        </mxCell>
        <mxCell id="ZrCiHc0d2njdrgSF2uFj-34" value="1" style="text;html=1;align=center;verticalAlign=middle;whiteSpace=wrap;rounded=0;" vertex="1" parent="ZrCiHc0d2njdrgSF2uFj-16">
          <mxGeometry x="5" y="70" width="10" height="20" as="geometry" />
        </mxCell>
        <mxCell id="ZrCiHc0d2njdrgSF2uFj-61" value="1" style="text;html=1;align=center;verticalAlign=middle;whiteSpace=wrap;rounded=0;" vertex="1" parent="ZrCiHc0d2njdrgSF2uFj-16">
          <mxGeometry x="130" y="36" width="10" height="20" as="geometry" />
        </mxCell>
        <mxCell id="6g46kTWGhpmDOOnm2r3h-3" value="NAME" style="ellipse;whiteSpace=wrap;html=1;align=center;" parent="ZrCiHc0d2njdrgSF2uFj-16" vertex="1">
          <mxGeometry x="130" y="102" width="60" height="30" as="geometry" />
        </mxCell>
        <mxCell id="6g46kTWGhpmDOOnm2r3h-8" value="" style="endArrow=none;html=1;rounded=0;exitX=0.5;exitY=0;exitDx=0;exitDy=0;entryX=0.5;entryY=1;entryDx=0;entryDy=0;" parent="ZrCiHc0d2njdrgSF2uFj-16" source="6g46kTWGhpmDOOnm2r3h-3" target="6g46kTWGhpmDOOnm2r3h-1" edge="1">
          <mxGeometry relative="1" as="geometry">
            <mxPoint x="10" y="80" as="sourcePoint" />
            <mxPoint x="30" y="100" as="targetPoint" />
          </mxGeometry>
        </mxCell>
        <mxCell id="ZrCiHc0d2njdrgSF2uFj-20" value="MANAGE" style="shape=rhombus;perimeter=rhombusPerimeter;whiteSpace=wrap;html=1;align=center;" vertex="1" parent="1">
          <mxGeometry x="290" y="100" width="120" height="60" as="geometry" />
        </mxCell>
        <mxCell id="ZrCiHc0d2njdrgSF2uFj-23" value="" style="endArrow=none;html=1;rounded=0;entryX=0;entryY=0.5;entryDx=0;entryDy=0;exitX=1;exitY=0.5;exitDx=0;exitDy=0;" edge="1" parent="1" source="ZrCiHc0d2njdrgSF2uFj-20" target="6g46kTWGhpmDOOnm2r3h-1">
          <mxGeometry relative="1" as="geometry">
            <mxPoint x="240" y="230" as="sourcePoint" />
            <mxPoint x="400" y="230" as="targetPoint" />
          </mxGeometry>
        </mxCell>
        <mxCell id="ZrCiHc0d2njdrgSF2uFj-24" value="1" style="resizable=0;html=1;whiteSpace=wrap;align=right;verticalAlign=bottom;" connectable="0" vertex="1" parent="ZrCiHc0d2njdrgSF2uFj-23">
          <mxGeometry x="1" relative="1" as="geometry" />
        </mxCell>
        <mxCell id="ZrCiHc0d2njdrgSF2uFj-27" value="" style="endArrow=none;html=1;rounded=0;exitX=0.5;exitY=0;exitDx=0;exitDy=0;" edge="1" parent="1" source="ZrCiHc0d2njdrgSF2uFj-20" target="ZrCiHc0d2njdrgSF2uFj-28">
          <mxGeometry width="50" height="50" relative="1" as="geometry">
            <mxPoint x="430" y="260" as="sourcePoint" />
            <mxPoint x="480" y="210" as="targetPoint" />
          </mxGeometry>
        </mxCell>
        <mxCell id="ZrCiHc0d2njdrgSF2uFj-28" value="START-DATE" style="ellipse;whiteSpace=wrap;html=1;align=center;" vertex="1" parent="1">
          <mxGeometry x="310" y="50" width="80" height="30" as="geometry" />
        </mxCell>
        <mxCell id="ZrCiHc0d2njdrgSF2uFj-29" value="ARRANGE" style="shape=rhombus;perimeter=rhombusPerimeter;whiteSpace=wrap;html=1;align=center;" vertex="1" parent="1">
          <mxGeometry x="240" y="160" width="120" height="60" as="geometry" />
        </mxCell>
        <mxCell id="ZrCiHc0d2njdrgSF2uFj-32" value="" style="endArrow=none;html=1;rounded=0;exitX=1;exitY=0.5;exitDx=0;exitDy=0;entryX=0;entryY=0.75;entryDx=0;entryDy=0;" edge="1" parent="1" source="ZrCiHc0d2njdrgSF2uFj-29" target="6g46kTWGhpmDOOnm2r3h-1">
          <mxGeometry relative="1" as="geometry">
            <mxPoint x="370" y="230" as="sourcePoint" />
            <mxPoint x="530" y="230" as="targetPoint" />
          </mxGeometry>
        </mxCell>
        <mxCell id="ZrCiHc0d2njdrgSF2uFj-35" value="EXPERTISE" style="ellipse;whiteSpace=wrap;html=1;align=center;" vertex="1" parent="1">
          <mxGeometry x="260" y="240" width="80" height="30" as="geometry" />
        </mxCell>
        <mxCell id="ZrCiHc0d2njdrgSF2uFj-36" value="" style="endArrow=none;html=1;rounded=0;exitX=0.5;exitY=1;exitDx=0;exitDy=0;entryX=0.5;entryY=0;entryDx=0;entryDy=0;" edge="1" parent="1" source="ZrCiHc0d2njdrgSF2uFj-29" target="ZrCiHc0d2njdrgSF2uFj-35">
          <mxGeometry relative="1" as="geometry">
            <mxPoint x="370" y="230" as="sourcePoint" />
            <mxPoint x="530" y="230" as="targetPoint" />
          </mxGeometry>
        </mxCell>
        <mxCell id="ZrCiHc0d2njdrgSF2uFj-41" value="" style="endArrow=none;html=1;rounded=0;exitX=0.5;exitY=0;exitDx=0;exitDy=0;entryX=0.5;entryY=1;entryDx=0;entryDy=0;" edge="1" parent="1" source="ZrCiHc0d2njdrgSF2uFj-37" target="ZrCiHc0d2njdrgSF2uFj-40">
          <mxGeometry relative="1" as="geometry">
            <mxPoint x="150" y="30" as="sourcePoint" />
            <mxPoint x="310" y="30" as="targetPoint" />
          </mxGeometry>
        </mxCell>
        <mxCell id="ZrCiHc0d2njdrgSF2uFj-56" value="" style="group" vertex="1" connectable="0" parent="1">
          <mxGeometry x="-80" y="-120" width="270" height="140" as="geometry" />
        </mxCell>
        <mxCell id="ZrCiHc0d2njdrgSF2uFj-40" value="QUALIFICATION" style="shape=ext;margin=3;double=1;whiteSpace=wrap;html=1;align=center;container=0;" vertex="1" parent="ZrCiHc0d2njdrgSF2uFj-56">
          <mxGeometry x="125" y="80" width="110" height="40" as="geometry" />
        </mxCell>
        <mxCell id="ZrCiHc0d2njdrgSF2uFj-43" value="M" style="text;html=1;align=center;verticalAlign=middle;whiteSpace=wrap;rounded=0;container=0;" vertex="1" parent="ZrCiHc0d2njdrgSF2uFj-56">
          <mxGeometry x="180" y="130" width="20" height="10" as="geometry" />
        </mxCell>
        <mxCell id="ZrCiHc0d2njdrgSF2uFj-44" value="&lt;u&gt;SPEC-TRAIN&lt;/u&gt;" style="ellipse;whiteSpace=wrap;html=1;align=center;container=0;" vertex="1" parent="ZrCiHc0d2njdrgSF2uFj-56">
          <mxGeometry y="85" width="80" height="30" as="geometry" />
        </mxCell>
        <mxCell id="ZrCiHc0d2njdrgSF2uFj-45" value="" style="endArrow=none;html=1;rounded=0;exitX=1;exitY=0.5;exitDx=0;exitDy=0;entryX=0;entryY=0.5;entryDx=0;entryDy=0;" edge="1" parent="ZrCiHc0d2njdrgSF2uFj-56" source="ZrCiHc0d2njdrgSF2uFj-44" target="ZrCiHc0d2njdrgSF2uFj-40">
          <mxGeometry relative="1" as="geometry">
            <mxPoint x="230" y="150" as="sourcePoint" />
            <mxPoint x="390" y="150" as="targetPoint" />
          </mxGeometry>
        </mxCell>
        <mxCell id="ZrCiHc0d2njdrgSF2uFj-49" value="INSTITUE OR UNIVERSITY" style="ellipse;whiteSpace=wrap;html=1;align=center;container=0;" vertex="1" parent="ZrCiHc0d2njdrgSF2uFj-56">
          <mxGeometry x="50" width="100" height="50" as="geometry" />
        </mxCell>
        <mxCell id="ZrCiHc0d2njdrgSF2uFj-50" value="" style="endArrow=none;html=1;rounded=0;exitX=0.5;exitY=1;exitDx=0;exitDy=0;entryX=0.5;entryY=0;entryDx=0;entryDy=0;" edge="1" parent="ZrCiHc0d2njdrgSF2uFj-56" source="ZrCiHc0d2njdrgSF2uFj-49" target="ZrCiHc0d2njdrgSF2uFj-40">
          <mxGeometry relative="1" as="geometry">
            <mxPoint x="230" y="150" as="sourcePoint" />
            <mxPoint x="390" y="150" as="targetPoint" />
          </mxGeometry>
        </mxCell>
        <mxCell id="ZrCiHc0d2njdrgSF2uFj-51" value="YEAR GRADUATION" style="ellipse;whiteSpace=wrap;html=1;align=center;container=0;" vertex="1" parent="ZrCiHc0d2njdrgSF2uFj-56">
          <mxGeometry x="170" y="5" width="100" height="40" as="geometry" />
        </mxCell>
        <mxCell id="ZrCiHc0d2njdrgSF2uFj-52" value="" style="endArrow=none;html=1;rounded=0;exitX=0.5;exitY=1;exitDx=0;exitDy=0;entryX=0.5;entryY=0;entryDx=0;entryDy=0;" edge="1" parent="ZrCiHc0d2njdrgSF2uFj-56" source="ZrCiHc0d2njdrgSF2uFj-51" target="ZrCiHc0d2njdrgSF2uFj-40">
          <mxGeometry relative="1" as="geometry">
            <mxPoint x="230" y="150" as="sourcePoint" />
            <mxPoint x="390" y="150" as="targetPoint" />
          </mxGeometry>
        </mxCell>
        <mxCell id="ZrCiHc0d2njdrgSF2uFj-57" value="DISTRIBUTED" style="shape=rhombus;perimeter=rhombusPerimeter;whiteSpace=wrap;html=1;align=center;" vertex="1" parent="1">
          <mxGeometry x="585" y="40" width="120" height="60" as="geometry" />
        </mxCell>
        <mxCell id="ZrCiHc0d2njdrgSF2uFj-58" value="" style="group" vertex="1" connectable="0" parent="1">
          <mxGeometry x="520" y="-160" width="315" height="190" as="geometry" />
        </mxCell>
        <mxCell id="ZrCiHc0d2njdrgSF2uFj-64" value="" style="group" vertex="1" connectable="0" parent="ZrCiHc0d2njdrgSF2uFj-58">
          <mxGeometry x="-60" y="30" width="350" height="155" as="geometry" />
        </mxCell>
        <mxCell id="ZrCiHc0d2njdrgSF2uFj-1" value="SUBJECT" style="rounded=0;whiteSpace=wrap;html=1;container=0;" vertex="1" parent="ZrCiHc0d2njdrgSF2uFj-64">
          <mxGeometry x="110" y="95" width="150" height="40" as="geometry" />
        </mxCell>
        <mxCell id="ZrCiHc0d2njdrgSF2uFj-2" value="&lt;u&gt;CODE&lt;/u&gt;" style="ellipse;whiteSpace=wrap;html=1;container=0;" vertex="1" parent="ZrCiHc0d2njdrgSF2uFj-64">
          <mxGeometry x="300" y="70" width="70" height="40" as="geometry" />
        </mxCell>
        <mxCell id="ZrCiHc0d2njdrgSF2uFj-3" value="NAME" style="ellipse;whiteSpace=wrap;html=1;container=0;" vertex="1" parent="ZrCiHc0d2njdrgSF2uFj-64">
          <mxGeometry x="270" y="17.5" width="70" height="40" as="geometry" />
        </mxCell>
        <mxCell id="ZrCiHc0d2njdrgSF2uFj-5" value="CREDITS THEORY" style="ellipse;whiteSpace=wrap;html=1;container=0;" vertex="1" parent="ZrCiHc0d2njdrgSF2uFj-64">
          <mxGeometry x="190" y="17.5" width="70" height="40" as="geometry" />
        </mxCell>
        <mxCell id="ZrCiHc0d2njdrgSF2uFj-7" value="PREREQUISITE" style="ellipse;whiteSpace=wrap;html=1;container=0;" vertex="1" parent="ZrCiHc0d2njdrgSF2uFj-64">
          <mxGeometry x="80" y="30" width="100" height="40" as="geometry" />
        </mxCell>
        <mxCell id="ZrCiHc0d2njdrgSF2uFj-8" value="" style="endArrow=none;html=1;rounded=0;exitX=0;exitY=0.5;exitDx=0;exitDy=0;entryX=1;entryY=0.5;entryDx=0;entryDy=0;" edge="1" parent="ZrCiHc0d2njdrgSF2uFj-64" source="ZrCiHc0d2njdrgSF2uFj-2" target="ZrCiHc0d2njdrgSF2uFj-1">
          <mxGeometry relative="1" as="geometry">
            <mxPoint x="180" y="85" as="sourcePoint" />
            <mxPoint x="340" y="85" as="targetPoint" />
          </mxGeometry>
        </mxCell>
        <mxCell id="ZrCiHc0d2njdrgSF2uFj-9" value="" style="endArrow=none;html=1;rounded=0;exitX=0.5;exitY=1;exitDx=0;exitDy=0;entryX=0.5;entryY=0;entryDx=0;entryDy=0;" edge="1" parent="ZrCiHc0d2njdrgSF2uFj-64" source="ZrCiHc0d2njdrgSF2uFj-5" target="ZrCiHc0d2njdrgSF2uFj-1">
          <mxGeometry relative="1" as="geometry">
            <mxPoint x="180" y="85" as="sourcePoint" />
            <mxPoint x="340" y="85" as="targetPoint" />
          </mxGeometry>
        </mxCell>
        <mxCell id="ZrCiHc0d2njdrgSF2uFj-11" value="" style="endArrow=none;html=1;rounded=0;exitX=0.5;exitY=0;exitDx=0;exitDy=0;entryX=0.5;entryY=1;entryDx=0;entryDy=0;" edge="1" parent="ZrCiHc0d2njdrgSF2uFj-64" source="ZrCiHc0d2njdrgSF2uFj-1" target="ZrCiHc0d2njdrgSF2uFj-3">
          <mxGeometry relative="1" as="geometry">
            <mxPoint x="180" y="85" as="sourcePoint" />
            <mxPoint x="260" y="50" as="targetPoint" />
          </mxGeometry>
        </mxCell>
        <mxCell id="ZrCiHc0d2njdrgSF2uFj-12" value="" style="endArrow=none;html=1;rounded=0;entryX=0.5;entryY=1;entryDx=0;entryDy=0;exitX=0.5;exitY=0;exitDx=0;exitDy=0;" edge="1" parent="ZrCiHc0d2njdrgSF2uFj-64" source="ZrCiHc0d2njdrgSF2uFj-1" target="ZrCiHc0d2njdrgSF2uFj-7">
          <mxGeometry relative="1" as="geometry">
            <mxPoint x="180" y="85" as="sourcePoint" />
            <mxPoint x="340" y="85" as="targetPoint" />
          </mxGeometry>
        </mxCell>
        <mxCell id="ZrCiHc0d2njdrgSF2uFj-62" value="M" style="text;html=1;align=center;verticalAlign=middle;whiteSpace=wrap;rounded=0;" vertex="1" parent="ZrCiHc0d2njdrgSF2uFj-64">
          <mxGeometry x="160" y="135" width="20" height="20" as="geometry" />
        </mxCell>
        <mxCell id="ZrCiHc0d2njdrgSF2uFj-6" value="PRACTICE CREDITS" style="ellipse;whiteSpace=wrap;html=1;container=0;" vertex="1" parent="ZrCiHc0d2njdrgSF2uFj-64">
          <mxGeometry x="-10" y="135" width="90" height="40" as="geometry" />
        </mxCell>
        <mxCell id="ZrCiHc0d2njdrgSF2uFj-13" value="" style="endArrow=none;html=1;rounded=0;exitX=0;exitY=0.5;exitDx=0;exitDy=0;entryX=1;entryY=0.5;entryDx=0;entryDy=0;" edge="1" parent="ZrCiHc0d2njdrgSF2uFj-64" source="ZrCiHc0d2njdrgSF2uFj-1" target="ZrCiHc0d2njdrgSF2uFj-6">
          <mxGeometry relative="1" as="geometry">
            <mxPoint x="190" y="145" as="sourcePoint" />
            <mxPoint x="289" y="106" as="targetPoint" />
          </mxGeometry>
        </mxCell>
        <mxCell id="ZrCiHc0d2njdrgSF2uFj-4" value="TOTAL CREDIT" style="ellipse;whiteSpace=wrap;html=1;container=0;" vertex="1" parent="ZrCiHc0d2njdrgSF2uFj-64">
          <mxGeometry x="20" y="57.5" width="70" height="40" as="geometry" />
        </mxCell>
        <mxCell id="ZrCiHc0d2njdrgSF2uFj-10" value="" style="endArrow=none;html=1;rounded=0;exitX=0.5;exitY=0;exitDx=0;exitDy=0;entryX=1;entryY=0.5;entryDx=0;entryDy=0;" edge="1" parent="ZrCiHc0d2njdrgSF2uFj-64" source="ZrCiHc0d2njdrgSF2uFj-1" target="ZrCiHc0d2njdrgSF2uFj-4">
          <mxGeometry relative="1" as="geometry">
            <mxPoint x="180" y="55" as="sourcePoint" />
            <mxPoint x="340" y="55" as="targetPoint" />
          </mxGeometry>
        </mxCell>
        <mxCell id="ZrCiHc0d2njdrgSF2uFj-59" value="" style="endArrow=none;html=1;rounded=0;entryX=1;entryY=0.5;entryDx=0;entryDy=0;exitX=0;exitY=0.5;exitDx=0;exitDy=0;" edge="1" parent="1" source="ZrCiHc0d2njdrgSF2uFj-57" target="6g46kTWGhpmDOOnm2r3h-1">
          <mxGeometry relative="1" as="geometry">
            <mxPoint x="540" y="210" as="sourcePoint" />
            <mxPoint x="700" y="210" as="targetPoint" />
          </mxGeometry>
        </mxCell>
        <mxCell id="ZrCiHc0d2njdrgSF2uFj-60" value="" style="endArrow=none;html=1;rounded=0;entryX=0.5;entryY=0;entryDx=0;entryDy=0;exitX=0.5;exitY=1;exitDx=0;exitDy=0;" edge="1" parent="1" source="ZrCiHc0d2njdrgSF2uFj-1" target="ZrCiHc0d2njdrgSF2uFj-57">
          <mxGeometry relative="1" as="geometry">
            <mxPoint x="540" y="210" as="sourcePoint" />
            <mxPoint x="700" y="210" as="targetPoint" />
          </mxGeometry>
        </mxCell>
        <mxCell id="ZrCiHc0d2njdrgSF2uFj-55" value="" style="group" vertex="1" connectable="0" parent="1">
          <mxGeometry x="10" y="40" width="280" height="140" as="geometry" />
        </mxCell>
        <mxCell id="6g46kTWGhpmDOOnm2r3h-19" value="SEX" style="ellipse;whiteSpace=wrap;html=1;align=center;container=0;" parent="ZrCiHc0d2njdrgSF2uFj-55" vertex="1">
          <mxGeometry x="10" y="110" width="70" height="30" as="geometry" />
        </mxCell>
        <mxCell id="6g46kTWGhpmDOOnm2r3h-24" value="" style="endArrow=none;html=1;rounded=0;exitX=1;exitY=0.5;exitDx=0;exitDy=0;entryX=0;entryY=0.5;entryDx=0;entryDy=0;" parent="ZrCiHc0d2njdrgSF2uFj-55" source="6g46kTWGhpmDOOnm2r3h-19" target="6g46kTWGhpmDOOnm2r3h-14" edge="1">
          <mxGeometry relative="1" as="geometry">
            <mxPoint x="210" y="130" as="sourcePoint" />
            <mxPoint x="170" y="70" as="targetPoint" />
          </mxGeometry>
        </mxCell>
        <mxCell id="6g46kTWGhpmDOOnm2r3h-14" value="INSTRUCTOR" style="whiteSpace=wrap;html=1;align=center;container=0;" parent="ZrCiHc0d2njdrgSF2uFj-55" vertex="1">
          <mxGeometry x="120" y="70" width="100" height="40" as="geometry" />
        </mxCell>
        <mxCell id="6g46kTWGhpmDOOnm2r3h-16" value="NAME" style="ellipse;whiteSpace=wrap;html=1;align=center;container=0;" parent="ZrCiHc0d2njdrgSF2uFj-55" vertex="1">
          <mxGeometry x="135" y="20" width="70" height="30" as="geometry" />
        </mxCell>
        <mxCell id="6g46kTWGhpmDOOnm2r3h-17" value="BIRTHDATE" style="ellipse;whiteSpace=wrap;html=1;align=center;container=0;" parent="ZrCiHc0d2njdrgSF2uFj-55" vertex="1">
          <mxGeometry x="10" y="40" width="80" height="30" as="geometry" />
        </mxCell>
        <mxCell id="6g46kTWGhpmDOOnm2r3h-18" value="STARTDATE" style="ellipse;whiteSpace=wrap;html=1;align=center;container=0;" parent="ZrCiHc0d2njdrgSF2uFj-55" vertex="1">
          <mxGeometry y="75" width="80" height="30" as="geometry" />
        </mxCell>
        <mxCell id="6g46kTWGhpmDOOnm2r3h-21" value="" style="endArrow=none;html=1;rounded=0;exitX=0.5;exitY=1;exitDx=0;exitDy=0;entryX=0.5;entryY=0;entryDx=0;entryDy=0;" parent="ZrCiHc0d2njdrgSF2uFj-55" source="6g46kTWGhpmDOOnm2r3h-16" target="6g46kTWGhpmDOOnm2r3h-14" edge="1">
          <mxGeometry relative="1" as="geometry">
            <mxPoint x="210" y="130" as="sourcePoint" />
            <mxPoint x="120" y="90" as="targetPoint" />
          </mxGeometry>
        </mxCell>
        <mxCell id="6g46kTWGhpmDOOnm2r3h-22" value="" style="endArrow=none;html=1;rounded=0;exitX=0;exitY=0.5;exitDx=0;exitDy=0;entryX=1;entryY=0.5;entryDx=0;entryDy=0;" parent="ZrCiHc0d2njdrgSF2uFj-55" source="6g46kTWGhpmDOOnm2r3h-14" target="6g46kTWGhpmDOOnm2r3h-17" edge="1">
          <mxGeometry relative="1" as="geometry">
            <mxPoint x="210" y="130" as="sourcePoint" />
            <mxPoint x="370" y="130" as="targetPoint" />
          </mxGeometry>
        </mxCell>
        <mxCell id="6g46kTWGhpmDOOnm2r3h-23" value="" style="endArrow=none;html=1;rounded=0;exitX=1;exitY=0.5;exitDx=0;exitDy=0;entryX=0;entryY=0.5;entryDx=0;entryDy=0;" parent="ZrCiHc0d2njdrgSF2uFj-55" source="6g46kTWGhpmDOOnm2r3h-18" target="6g46kTWGhpmDOOnm2r3h-14" edge="1">
          <mxGeometry relative="1" as="geometry">
            <mxPoint x="210" y="130" as="sourcePoint" />
            <mxPoint x="370" y="130" as="targetPoint" />
          </mxGeometry>
        </mxCell>
        <mxCell id="ZrCiHc0d2njdrgSF2uFj-25" value="1" style="text;html=1;align=center;verticalAlign=middle;whiteSpace=wrap;rounded=0;container=0;" vertex="1" parent="ZrCiHc0d2njdrgSF2uFj-55">
          <mxGeometry x="220" y="90" width="10" height="20" as="geometry" />
        </mxCell>
        <mxCell id="ZrCiHc0d2njdrgSF2uFj-33" value="M" style="text;html=1;align=center;verticalAlign=middle;whiteSpace=wrap;rounded=0;container=0;" vertex="1" parent="ZrCiHc0d2njdrgSF2uFj-55">
          <mxGeometry x="190" y="110" width="20" height="20" as="geometry" />
        </mxCell>
        <mxCell id="ZrCiHc0d2njdrgSF2uFj-37" value="HAVE" style="shape=rhombus;double=1;perimeter=rhombusPerimeter;whiteSpace=wrap;html=1;align=center;container=0;" vertex="1" parent="ZrCiHc0d2njdrgSF2uFj-55">
          <mxGeometry x="50" width="80" height="40" as="geometry" />
        </mxCell>
        <mxCell id="ZrCiHc0d2njdrgSF2uFj-39" value="" style="endArrow=none;html=1;rounded=0;entryX=0.5;entryY=1;entryDx=0;entryDy=0;exitX=0.16;exitY=-0.008;exitDx=0;exitDy=0;exitPerimeter=0;" edge="1" parent="ZrCiHc0d2njdrgSF2uFj-55" source="6g46kTWGhpmDOOnm2r3h-14" target="ZrCiHc0d2njdrgSF2uFj-37">
          <mxGeometry relative="1" as="geometry">
            <mxPoint x="140" y="90" as="sourcePoint" />
            <mxPoint x="300" y="90" as="targetPoint" />
          </mxGeometry>
        </mxCell>
        <mxCell id="ZrCiHc0d2njdrgSF2uFj-42" value="1" style="text;html=1;align=center;verticalAlign=middle;whiteSpace=wrap;rounded=0;container=0;" vertex="1" parent="ZrCiHc0d2njdrgSF2uFj-55">
          <mxGeometry x="135" y="50" width="10" height="20" as="geometry" />
        </mxCell>
        <mxCell id="6g46kTWGhpmDOOnm2r3h-15" value="&lt;u&gt;ID&lt;/u&gt;" style="ellipse;whiteSpace=wrap;html=1;align=center;container=0;" parent="1" vertex="1">
          <mxGeometry x="30" y="190" width="70" height="30" as="geometry" />
        </mxCell>
        <mxCell id="6g46kTWGhpmDOOnm2r3h-20" value="" style="endArrow=none;html=1;rounded=0;exitX=1;exitY=0;exitDx=0;exitDy=0;entryX=0;entryY=0.5;entryDx=0;entryDy=0;" parent="1" source="6g46kTWGhpmDOOnm2r3h-15" target="6g46kTWGhpmDOOnm2r3h-14" edge="1">
          <mxGeometry relative="1" as="geometry">
            <mxPoint x="220" y="170" as="sourcePoint" />
            <mxPoint x="380" y="170" as="targetPoint" />
          </mxGeometry>
        </mxCell>
        <mxCell id="ZrCiHc0d2njdrgSF2uFj-31" value="" style="endArrow=none;html=1;rounded=0;exitX=0.5;exitY=1;exitDx=0;exitDy=0;entryX=0;entryY=0.5;entryDx=0;entryDy=0;" edge="1" parent="1" source="6g46kTWGhpmDOOnm2r3h-14" target="ZrCiHc0d2njdrgSF2uFj-29">
          <mxGeometry relative="1" as="geometry">
            <mxPoint x="370" y="230" as="sourcePoint" />
            <mxPoint x="530" y="230" as="targetPoint" />
          </mxGeometry>
        </mxCell>
        <mxCell id="ZrCiHc0d2njdrgSF2uFj-21" value="" style="endArrow=none;html=1;rounded=0;entryX=1;entryY=0.5;entryDx=0;entryDy=0;exitX=0;exitY=0.5;exitDx=0;exitDy=0;" edge="1" parent="1" source="ZrCiHc0d2njdrgSF2uFj-20" target="6g46kTWGhpmDOOnm2r3h-14">
          <mxGeometry relative="1" as="geometry">
            <mxPoint x="260" y="230" as="sourcePoint" />
            <mxPoint x="420" y="230" as="targetPoint" />
          </mxGeometry>
        </mxCell>
        <mxCell id="ZrCiHc0d2njdrgSF2uFj-67" value="TEACH" style="shape=rhombus;perimeter=rhombusPerimeter;whiteSpace=wrap;html=1;align=center;" vertex="1" parent="1">
          <mxGeometry x="290" y="-40" width="90" height="50" as="geometry" />
        </mxCell>
        <mxCell id="ZrCiHc0d2njdrgSF2uFj-73" value="" style="endArrow=none;html=1;rounded=0;exitX=0;exitY=0.5;exitDx=0;exitDy=0;entryX=1;entryY=0.25;entryDx=0;entryDy=0;verticalAlign=middle;" edge="1" parent="1" source="ZrCiHc0d2njdrgSF2uFj-67" target="6g46kTWGhpmDOOnm2r3h-14">
          <mxGeometry relative="1" as="geometry">
            <mxPoint x="310" y="90" as="sourcePoint" />
            <mxPoint x="470" y="90" as="targetPoint" />
          </mxGeometry>
        </mxCell>
        <mxCell id="ZrCiHc0d2njdrgSF2uFj-74" value="M" style="resizable=0;html=1;whiteSpace=wrap;align=right;verticalAlign=bottom;" connectable="0" vertex="1" parent="ZrCiHc0d2njdrgSF2uFj-73">
          <mxGeometry x="1" relative="1" as="geometry">
            <mxPoint x="5" y="-10" as="offset" />
          </mxGeometry>
        </mxCell>
        <mxCell id="ZrCiHc0d2njdrgSF2uFj-75" value="" style="endArrow=none;html=1;rounded=0;entryX=1;entryY=0.5;entryDx=0;entryDy=0;exitX=0;exitY=0.5;exitDx=0;exitDy=0;" edge="1" parent="1" source="ZrCiHc0d2njdrgSF2uFj-1" target="ZrCiHc0d2njdrgSF2uFj-67">
          <mxGeometry relative="1" as="geometry">
            <mxPoint x="310" y="90" as="sourcePoint" />
            <mxPoint x="470" y="90" as="targetPoint" />
          </mxGeometry>
        </mxCell>
        <mxCell id="ZrCiHc0d2njdrgSF2uFj-76" value="M" style="resizable=0;html=1;whiteSpace=wrap;align=right;verticalAlign=bottom;" connectable="0" vertex="1" parent="ZrCiHc0d2njdrgSF2uFj-75">
          <mxGeometry x="1" relative="1" as="geometry">
            <mxPoint x="186" as="offset" />
          </mxGeometry>
        </mxCell>
        <mxCell id="ZrCiHc0d2njdrgSF2uFj-80" value="" style="group" vertex="1" connectable="0" parent="1">
          <mxGeometry x="53" y="342" width="309" height="94" as="geometry" />
        </mxCell>
        <mxCell id="ZrCiHc0d2njdrgSF2uFj-14" value="CLASS" style="whiteSpace=wrap;html=1;align=center;" vertex="1" parent="ZrCiHc0d2njdrgSF2uFj-80">
          <mxGeometry x="56.608695652173914" width="94.34782608695652" height="34.18181818181818" as="geometry" />
        </mxCell>
        <mxCell id="ZrCiHc0d2njdrgSF2uFj-19" value="&lt;u&gt;CLASS_CODE&lt;/u&gt;" style="ellipse;whiteSpace=wrap;html=1;align=center;" vertex="1" parent="ZrCiHc0d2njdrgSF2uFj-80">
          <mxGeometry x="2" y="51.998181818181806" width="94.34782608695652" height="34.18181818181818" as="geometry" />
        </mxCell>
        <mxCell id="ZrCiHc0d2njdrgSF2uFj-78" value="" style="endArrow=none;html=1;rounded=0;entryX=0.5;entryY=1;entryDx=0;entryDy=0;exitX=0.5;exitY=0;exitDx=0;exitDy=0;" edge="1" parent="ZrCiHc0d2njdrgSF2uFj-80" source="ZrCiHc0d2njdrgSF2uFj-19" target="ZrCiHc0d2njdrgSF2uFj-14">
          <mxGeometry relative="1" as="geometry">
            <mxPoint x="-226.43478260869566" y="-102.54545454545453" as="sourcePoint" />
            <mxPoint x="-75.47826086956522" y="-102.54545454545453" as="targetPoint" />
          </mxGeometry>
        </mxCell>
        <mxCell id="ZrCiHc0d2njdrgSF2uFj-118" value="ENRROLLMENT" style="shape=rhombus;perimeter=rhombusPerimeter;whiteSpace=wrap;html=1;align=center;" vertex="1" parent="ZrCiHc0d2njdrgSF2uFj-80">
          <mxGeometry x="189" y="-12.909999999999997" width="120" height="60" as="geometry" />
        </mxCell>
        <mxCell id="ZrCiHc0d2njdrgSF2uFj-121" value="" style="endArrow=none;html=1;rounded=0;entryX=1;entryY=0.5;entryDx=0;entryDy=0;exitX=0;exitY=0.5;exitDx=0;exitDy=0;" edge="1" parent="ZrCiHc0d2njdrgSF2uFj-80" source="ZrCiHc0d2njdrgSF2uFj-118" target="ZrCiHc0d2njdrgSF2uFj-14">
          <mxGeometry relative="1" as="geometry">
            <mxPoint x="192" y="-2" as="sourcePoint" />
            <mxPoint x="352" y="-2" as="targetPoint" />
          </mxGeometry>
        </mxCell>
        <mxCell id="ZrCiHc0d2njdrgSF2uFj-122" value="M" style="resizable=0;html=1;whiteSpace=wrap;align=right;verticalAlign=bottom;" connectable="0" vertex="1" parent="ZrCiHc0d2njdrgSF2uFj-121">
          <mxGeometry x="1" relative="1" as="geometry">
            <mxPoint x="12" as="offset" />
          </mxGeometry>
        </mxCell>
        <mxCell id="ZrCiHc0d2njdrgSF2uFj-81" value="ACADEMIC SUPERVISOR" style="shape=rhombus;perimeter=rhombusPerimeter;whiteSpace=wrap;html=1;align=center;" vertex="1" parent="1">
          <mxGeometry x="97" y="247" width="120" height="60" as="geometry" />
        </mxCell>
        <mxCell id="ZrCiHc0d2njdrgSF2uFj-82" value="OFFICE PHONE" style="ellipse;whiteSpace=wrap;html=1;align=center;" vertex="1" parent="1">
          <mxGeometry x="600" y="112.5" width="90" height="35" as="geometry" />
        </mxCell>
        <mxCell id="ZrCiHc0d2njdrgSF2uFj-83" value="" style="endArrow=none;html=1;rounded=0;entryX=1;entryY=0.5;entryDx=0;entryDy=0;exitX=0;exitY=0.5;exitDx=0;exitDy=0;" edge="1" parent="1" source="ZrCiHc0d2njdrgSF2uFj-82" target="6g46kTWGhpmDOOnm2r3h-1">
          <mxGeometry relative="1" as="geometry">
            <mxPoint x="290" y="210" as="sourcePoint" />
            <mxPoint x="450" y="210" as="targetPoint" />
          </mxGeometry>
        </mxCell>
        <mxCell id="ZrCiHc0d2njdrgSF2uFj-91" value="" style="endArrow=none;html=1;rounded=0;entryX=0.25;entryY=1;entryDx=0;entryDy=0;exitX=0.5;exitY=0;exitDx=0;exitDy=0;" edge="1" parent="1" source="ZrCiHc0d2njdrgSF2uFj-81" target="6g46kTWGhpmDOOnm2r3h-14">
          <mxGeometry relative="1" as="geometry">
            <mxPoint x="290" y="210" as="sourcePoint" />
            <mxPoint x="450" y="210" as="targetPoint" />
          </mxGeometry>
        </mxCell>
        <mxCell id="ZrCiHc0d2njdrgSF2uFj-92" value="1" style="resizable=0;html=1;whiteSpace=wrap;align=right;verticalAlign=bottom;" connectable="0" vertex="1" parent="ZrCiHc0d2njdrgSF2uFj-91">
          <mxGeometry x="1" relative="1" as="geometry">
            <mxPoint y="16" as="offset" />
          </mxGeometry>
        </mxCell>
        <mxCell id="ZrCiHc0d2njdrgSF2uFj-94" value="" style="endArrow=none;html=1;rounded=0;entryX=0.5;entryY=0;entryDx=0;entryDy=0;exitX=0.5;exitY=1;exitDx=0;exitDy=0;" edge="1" parent="1" source="ZrCiHc0d2njdrgSF2uFj-81" target="ZrCiHc0d2njdrgSF2uFj-14">
          <mxGeometry relative="1" as="geometry">
            <mxPoint x="290" y="210" as="sourcePoint" />
            <mxPoint x="450" y="210" as="targetPoint" />
          </mxGeometry>
        </mxCell>
        <mxCell id="ZrCiHc0d2njdrgSF2uFj-95" value="1" style="resizable=0;html=1;whiteSpace=wrap;align=right;verticalAlign=bottom;" connectable="0" vertex="1" parent="ZrCiHc0d2njdrgSF2uFj-94">
          <mxGeometry x="1" relative="1" as="geometry" />
        </mxCell>
        <mxCell id="ZrCiHc0d2njdrgSF2uFj-117" value="" style="group" vertex="1" connectable="0" parent="1">
          <mxGeometry x="441" y="259" width="431" height="225" as="geometry" />
        </mxCell>
        <mxCell id="ZrCiHc0d2njdrgSF2uFj-93" value="STUDENT" style="whiteSpace=wrap;html=1;align=center;" vertex="1" parent="ZrCiHc0d2njdrgSF2uFj-117">
          <mxGeometry x="99" y="56.25" width="150" height="64" as="geometry" />
        </mxCell>
        <mxCell id="ZrCiHc0d2njdrgSF2uFj-97" value="NAME" style="ellipse;whiteSpace=wrap;html=1;align=center;" vertex="1" parent="ZrCiHc0d2njdrgSF2uFj-117">
          <mxGeometry x="29" y="161" width="65" height="32" as="geometry" />
        </mxCell>
        <mxCell id="ZrCiHc0d2njdrgSF2uFj-98" value="&lt;u&gt;NO. STUDENT&lt;/u&gt;" style="ellipse;whiteSpace=wrap;html=1;align=center;" vertex="1" parent="ZrCiHc0d2njdrgSF2uFj-117">
          <mxGeometry x="85" y="182" width="78" height="37.5" as="geometry" />
        </mxCell>
        <mxCell id="ZrCiHc0d2njdrgSF2uFj-99" value="&lt;u&gt;NO. SECURITY&lt;/u&gt;" style="ellipse;whiteSpace=wrap;html=1;align=center;" vertex="1" parent="ZrCiHc0d2njdrgSF2uFj-117">
          <mxGeometry y="115" width="76" height="41.5" as="geometry" />
        </mxCell>
        <mxCell id="ZrCiHc0d2njdrgSF2uFj-100" value="CUR ADDRESS" style="ellipse;whiteSpace=wrap;html=1;align=center;" vertex="1" parent="ZrCiHc0d2njdrgSF2uFj-117">
          <mxGeometry x="246" y="159" width="100" height="34" as="geometry" />
        </mxCell>
        <mxCell id="ZrCiHc0d2njdrgSF2uFj-101" value="CUR PHONE" style="ellipse;whiteSpace=wrap;html=1;align=center;" vertex="1" parent="ZrCiHc0d2njdrgSF2uFj-117">
          <mxGeometry x="272" y="120.25" width="84" height="31" as="geometry" />
        </mxCell>
        <mxCell id="ZrCiHc0d2njdrgSF2uFj-102" value="PERM ADDRESS" style="ellipse;whiteSpace=wrap;html=1;align=center;" vertex="1" parent="ZrCiHc0d2njdrgSF2uFj-117">
          <mxGeometry x="264" y="37" width="100" height="32" as="geometry" />
        </mxCell>
        <mxCell id="ZrCiHc0d2njdrgSF2uFj-104" value="PERM PHONE" style="ellipse;whiteSpace=wrap;html=1;align=center;" vertex="1" parent="ZrCiHc0d2njdrgSF2uFj-117">
          <mxGeometry x="280" y="78" width="91" height="37" as="geometry" />
        </mxCell>
        <mxCell id="ZrCiHc0d2njdrgSF2uFj-105" value="BIRTHDATE" style="ellipse;whiteSpace=wrap;html=1;align=center;" vertex="1" parent="ZrCiHc0d2njdrgSF2uFj-117">
          <mxGeometry x="221" y="-11" width="100" height="40" as="geometry" />
        </mxCell>
        <mxCell id="ZrCiHc0d2njdrgSF2uFj-106" value="SEX" style="ellipse;whiteSpace=wrap;html=1;align=center;" vertex="1" parent="ZrCiHc0d2njdrgSF2uFj-117">
          <mxGeometry x="215" y="195" width="55" height="30" as="geometry" />
        </mxCell>
        <mxCell id="ZrCiHc0d2njdrgSF2uFj-107" value="" style="endArrow=none;html=1;rounded=0;entryX=0.5;entryY=0;entryDx=0;entryDy=0;exitX=0.25;exitY=1;exitDx=0;exitDy=0;" edge="1" parent="ZrCiHc0d2njdrgSF2uFj-117" source="ZrCiHc0d2njdrgSF2uFj-93" target="ZrCiHc0d2njdrgSF2uFj-97">
          <mxGeometry relative="1" as="geometry">
            <mxPoint x="-106" y="98" as="sourcePoint" />
            <mxPoint x="54" y="98" as="targetPoint" />
          </mxGeometry>
        </mxCell>
        <mxCell id="ZrCiHc0d2njdrgSF2uFj-108" value="" style="endArrow=none;html=1;rounded=0;entryX=0.5;entryY=0;entryDx=0;entryDy=0;exitX=0.25;exitY=1;exitDx=0;exitDy=0;" edge="1" parent="ZrCiHc0d2njdrgSF2uFj-117" source="ZrCiHc0d2njdrgSF2uFj-93" target="ZrCiHc0d2njdrgSF2uFj-98">
          <mxGeometry relative="1" as="geometry">
            <mxPoint x="124" y="130" as="sourcePoint" />
            <mxPoint x="122" y="135" as="targetPoint" />
          </mxGeometry>
        </mxCell>
        <mxCell id="ZrCiHc0d2njdrgSF2uFj-109" style="edgeStyle=orthogonalEdgeStyle;rounded=0;orthogonalLoop=1;jettySize=auto;html=1;exitX=0.5;exitY=1;exitDx=0;exitDy=0;" edge="1" parent="ZrCiHc0d2njdrgSF2uFj-117" source="ZrCiHc0d2njdrgSF2uFj-98" target="ZrCiHc0d2njdrgSF2uFj-98">
          <mxGeometry relative="1" as="geometry" />
        </mxCell>
        <mxCell id="ZrCiHc0d2njdrgSF2uFj-110" value="" style="endArrow=none;html=1;rounded=0;entryX=0.5;entryY=0;entryDx=0;entryDy=0;exitX=0;exitY=0.5;exitDx=0;exitDy=0;" edge="1" parent="ZrCiHc0d2njdrgSF2uFj-117" source="ZrCiHc0d2njdrgSF2uFj-93" target="ZrCiHc0d2njdrgSF2uFj-99">
          <mxGeometry relative="1" as="geometry">
            <mxPoint x="-106" y="98" as="sourcePoint" />
            <mxPoint x="54" y="98" as="targetPoint" />
          </mxGeometry>
        </mxCell>
        <mxCell id="ZrCiHc0d2njdrgSF2uFj-111" value="" style="endArrow=none;html=1;rounded=0;entryX=0.5;entryY=0;entryDx=0;entryDy=0;exitX=0.75;exitY=1;exitDx=0;exitDy=0;" edge="1" parent="ZrCiHc0d2njdrgSF2uFj-117" source="ZrCiHc0d2njdrgSF2uFj-93" target="ZrCiHc0d2njdrgSF2uFj-106">
          <mxGeometry relative="1" as="geometry">
            <mxPoint x="-106" y="98" as="sourcePoint" />
            <mxPoint x="54" y="98" as="targetPoint" />
          </mxGeometry>
        </mxCell>
        <mxCell id="ZrCiHc0d2njdrgSF2uFj-112" value="" style="endArrow=none;html=1;rounded=0;entryX=0;entryY=0;entryDx=0;entryDy=0;exitX=0.75;exitY=1;exitDx=0;exitDy=0;" edge="1" parent="ZrCiHc0d2njdrgSF2uFj-117" source="ZrCiHc0d2njdrgSF2uFj-93" target="ZrCiHc0d2njdrgSF2uFj-100">
          <mxGeometry relative="1" as="geometry">
            <mxPoint x="221" y="139" as="sourcePoint" />
            <mxPoint x="54" y="98" as="targetPoint" />
          </mxGeometry>
        </mxCell>
        <mxCell id="ZrCiHc0d2njdrgSF2uFj-113" value="" style="endArrow=none;html=1;rounded=0;entryX=0.5;entryY=1;entryDx=0;entryDy=0;exitX=0.75;exitY=0;exitDx=0;exitDy=0;" edge="1" parent="ZrCiHc0d2njdrgSF2uFj-117" source="ZrCiHc0d2njdrgSF2uFj-93" target="ZrCiHc0d2njdrgSF2uFj-105">
          <mxGeometry relative="1" as="geometry">
            <mxPoint x="-32" y="98" as="sourcePoint" />
            <mxPoint x="128" y="98" as="targetPoint" />
          </mxGeometry>
        </mxCell>
        <mxCell id="ZrCiHc0d2njdrgSF2uFj-114" value="" style="endArrow=none;html=1;rounded=0;entryX=0;entryY=0.5;entryDx=0;entryDy=0;exitX=1;exitY=0.5;exitDx=0;exitDy=0;" edge="1" parent="ZrCiHc0d2njdrgSF2uFj-117" source="ZrCiHc0d2njdrgSF2uFj-93" target="ZrCiHc0d2njdrgSF2uFj-102">
          <mxGeometry relative="1" as="geometry">
            <mxPoint x="-32" y="98" as="sourcePoint" />
            <mxPoint x="128" y="98" as="targetPoint" />
          </mxGeometry>
        </mxCell>
        <mxCell id="ZrCiHc0d2njdrgSF2uFj-115" value="" style="endArrow=none;html=1;rounded=0;entryX=0;entryY=0.5;entryDx=0;entryDy=0;exitX=0.75;exitY=1;exitDx=0;exitDy=0;" edge="1" parent="ZrCiHc0d2njdrgSF2uFj-117" source="ZrCiHc0d2njdrgSF2uFj-93" target="ZrCiHc0d2njdrgSF2uFj-101">
          <mxGeometry relative="1" as="geometry">
            <mxPoint x="-32" y="98" as="sourcePoint" />
            <mxPoint x="128" y="98" as="targetPoint" />
          </mxGeometry>
        </mxCell>
        <mxCell id="ZrCiHc0d2njdrgSF2uFj-116" value="" style="endArrow=none;html=1;rounded=0;entryX=0;entryY=0.5;entryDx=0;entryDy=0;exitX=1;exitY=0.5;exitDx=0;exitDy=0;" edge="1" parent="ZrCiHc0d2njdrgSF2uFj-117" source="ZrCiHc0d2njdrgSF2uFj-93" target="ZrCiHc0d2njdrgSF2uFj-104">
          <mxGeometry relative="1" as="geometry">
            <mxPoint x="-32" y="98" as="sourcePoint" />
            <mxPoint x="128" y="98" as="targetPoint" />
          </mxGeometry>
        </mxCell>
        <mxCell id="ZrCiHc0d2njdrgSF2uFj-123" value="" style="endArrow=none;html=1;rounded=0;entryX=0;entryY=0.5;entryDx=0;entryDy=0;exitX=1;exitY=0.5;exitDx=0;exitDy=0;" edge="1" parent="1" source="ZrCiHc0d2njdrgSF2uFj-118" target="ZrCiHc0d2njdrgSF2uFj-93">
          <mxGeometry relative="1" as="geometry">
            <mxPoint x="364" y="329" as="sourcePoint" />
            <mxPoint x="524" y="329" as="targetPoint" />
          </mxGeometry>
        </mxCell>
        <mxCell id="ZrCiHc0d2njdrgSF2uFj-124" value="M" style="resizable=0;html=1;whiteSpace=wrap;align=right;verticalAlign=bottom;" connectable="0" vertex="1" parent="ZrCiHc0d2njdrgSF2uFj-123">
          <mxGeometry x="1" relative="1" as="geometry" />
        </mxCell>
        <mxCell id="ZrCiHc0d2njdrgSF2uFj-125" value="ASSIGN" style="shape=rhombus;perimeter=rhombusPerimeter;whiteSpace=wrap;html=1;align=center;" vertex="1" parent="1">
          <mxGeometry x="437" y="210" width="120" height="60" as="geometry" />
        </mxCell>
      </root>
    </mxGraphModel>
  </diagram>
</mxfile>
